# xmcd
#
# Track frame offsets:
#	150
#	16191
#	28721
#	40993
#	55809
#	73219
#	91011
#	117708
#	131245
#	155653
#	185330
#
# Disc length: 2709 seconds
#
# Revision: 0
# Processed by: cddbd v1.5.2PL0 Copyright (c) Steve Scherf et al.
# Submitted via: EasyCDDAExtractor 2011.3.0.0
#
DISCID=980a930b
DTITLE=Tai Shan - Lost Horizon
DYEAR=2011
DGENRE=Fusion
TTITLE0=Think About It!
TTITLE1=City Nights
TTITLE2=Long Groovy Winter Nights
TTITLE3=Hazy Dog
TTITLE4=Detective Blues
TTITLE5=Science, Human And Nature
TTITLE6=A New Chance
TTITLE7=Bombay
TTITLE8=Lost Horizon
TTITLE9=Painter's Nightmare
TTITLE10=Winds From The East
EXTD=
EXTT0=
EXTT1=
EXTT2=
EXTT3=
EXTT4=
EXTT5=
EXTT6=
EXTT7=
EXTT8=
EXTT9=
EXTT10=
PLAYORDER=
